<svg width="289" height="53" viewBox="0 0 289 53" fill="none" xmlns="http://www.w3.org/2000/svg">
<path d="M4.912 12.096C4.08 12.096 3.28 11.9627 2.512 11.696C1.75467 11.4293 1.168 11.0773 0.752 10.64L1.216 9.728C1.62133 10.1333 2.16 10.464 2.832 10.72C3.504 10.9653 4.19733 11.088 4.912 11.088C5.91467 11.088 6.66667 10.9067 7.168 10.544C7.66933 10.1707 7.92 9.69067 7.92 9.104C7.92 8.656 7.78133 8.29867 7.504 8.032C7.23733 7.76533 6.90667 7.56267 6.512 7.424C6.11733 7.27467 5.568 7.11467 4.864 6.944C4.02133 6.73067 3.34933 6.528 2.848 6.336C2.34667 6.13333 1.91467 5.82933 1.552 5.424C1.2 5.01867 1.024 4.46933 1.024 3.776C1.024 3.21067 1.17333 2.69867 1.472 2.24C1.77067 1.77067 2.22933 1.39733 2.848 1.12C3.46667 0.842666 4.23467 0.704 5.152 0.704C5.792 0.704 6.416 0.794666 7.024 0.976C7.64267 1.14667 8.176 1.38667 8.624 1.696L8.224 2.64C7.75467 2.33067 7.25333 2.10133 6.72 1.952C6.18667 1.792 5.664 1.712 5.152 1.712C4.17067 1.712 3.42933 1.904 2.928 2.288C2.43733 2.66133 2.192 3.14667 2.192 3.744C2.192 4.192 2.32533 4.55467 2.592 4.832C2.86933 5.09867 3.21067 5.30667 3.616 5.456C4.032 5.59467 4.58667 5.74933 5.28 5.92C6.10133 6.12267 6.76267 6.32533 7.264 6.528C7.776 6.72 8.208 7.01867 8.56 7.424C8.912 7.81867 9.088 8.35733 9.088 9.04C9.088 9.60533 8.93333 10.1227 8.624 10.592C8.32533 11.0507 7.86133 11.4187 7.232 11.696C6.60267 11.9627 5.82933 12.096 4.912 12.096ZM15.9398 6.736L13.6518 9.056V12H12.4678V0.799999H13.6518V7.568L20.2278 0.799999H21.5878L16.7398 5.872L21.9238 12H20.5158L15.9398 6.736ZM28.9985 12.096C27.5478 12.096 26.4172 11.68 25.6065 10.848C24.7958 10.016 24.3905 8.80533 24.3905 7.216V0.799999H25.5745V7.168C25.5745 8.46933 25.8678 9.44 26.4545 10.08C27.0412 10.72 27.8892 11.04 28.9985 11.04C30.1185 11.04 30.9718 10.72 31.5585 10.08C32.1452 9.44 32.4385 8.46933 32.4385 7.168V0.799999H33.5905V7.216C33.5905 8.80533 33.1852 10.016 32.3745 10.848C31.5745 11.68 30.4492 12.096 28.9985 12.096ZM37.8304 5.264C37.5957 5.264 37.393 5.17867 37.2224 5.008C37.0624 4.83733 36.9824 4.62933 36.9824 4.384C36.9824 4.13867 37.0624 3.936 37.2224 3.776C37.393 3.60533 37.5957 3.52 37.8304 3.52C38.065 3.52 38.2677 3.60533 38.4384 3.776C38.609 3.936 38.6944 4.13867 38.6944 4.384C38.6944 4.62933 38.609 4.83733 38.4384 5.008C38.2677 5.17867 38.065 5.264 37.8304 5.264ZM37.8304 12.08C37.5957 12.08 37.393 11.9947 37.2224 11.824C37.0624 11.6533 36.9824 11.4453 36.9824 11.2C36.9824 10.9547 37.0624 10.752 37.2224 10.592C37.393 10.4213 37.5957 10.336 37.8304 10.336C38.065 10.336 38.2677 10.4213 38.4384 10.592C38.609 10.752 38.6944 10.9547 38.6944 11.2C38.6944 11.4453 38.609 11.6533 38.4384 11.824C38.2677 11.9947 38.065 12.08 37.8304 12.08ZM49.0885 5.392C50.7098 5.392 51.8885 5.68533 52.6245 6.272C53.3712 6.848 53.7445 7.65867 53.7445 8.704C53.7445 9.35467 53.5898 9.936 53.2805 10.448C52.9818 10.96 52.5285 11.3653 51.9205 11.664C51.3125 11.952 50.5658 12.096 49.6805 12.096C48.8805 12.096 48.1178 11.968 47.3925 11.712C46.6778 11.4453 46.1018 11.0933 45.6645 10.656L46.2245 9.744C46.5978 10.128 47.0885 10.4427 47.6965 10.688C48.3045 10.9227 48.9605 11.04 49.6645 11.04C50.5925 11.04 51.3072 10.832 51.8085 10.416C52.3205 10 52.5765 9.44533 52.5765 8.752C52.5765 7.984 52.2885 7.40267 51.7125 7.008C51.1472 6.61333 50.1872 6.416 48.8325 6.416H46.4485L47.0245 0.799999H53.1525V1.824H48.0325L47.6485 5.392H49.0885ZM58.8729 5.392C60.4942 5.392 61.6729 5.68533 62.4089 6.272C63.1555 6.848 63.5289 7.65867 63.5289 8.704C63.5289 9.35467 63.3742 9.936 63.0649 10.448C62.7662 10.96 62.3129 11.3653 61.7049 11.664C61.0969 11.952 60.3502 12.096 59.4649 12.096C58.6649 12.096 57.9022 11.968 57.1769 11.712C56.4622 11.4453 55.8862 11.0933 55.4489 10.656L56.0089 9.744C56.3822 10.128 56.8729 10.4427 57.4809 10.688C58.0889 10.9227 58.7449 11.04 59.4489 11.04C60.3769 11.04 61.0915 10.832 61.5929 10.416C62.1049 10 62.3609 9.44533 62.3609 8.752C62.3609 7.984 62.0729 7.40267 61.4969 7.008C60.9315 6.61333 59.9715 6.416 58.6169 6.416H56.2329L56.8089 0.799999H62.9369V1.824H57.8169L57.4329 5.392H58.8729ZM75.3114 9.056H73.0714V12H71.9194V9.056H65.5994V8.224L71.5354 0.799999H72.8154L67.0874 8.032H71.9514V5.44H73.0714V8.032H75.3114V9.056ZM84.2766 0.799999V1.616L79.5886 12H78.3406L82.9486 1.824H77.1886V3.92H76.0526V0.799999H84.2766ZM94.2425 10.976V12H86.3865V11.184L91.0425 6.624C91.6292 6.048 92.0238 5.552 92.2265 5.136C92.4398 4.70933 92.5465 4.28267 92.5465 3.856C92.5465 3.19467 92.3172 2.68267 91.8585 2.32C91.4105 1.94667 90.7652 1.76 89.9225 1.76C88.6105 1.76 87.5918 2.176 86.8665 3.008L86.0505 2.304C86.4878 1.792 87.0425 1.39733 87.7145 1.12C88.3972 0.842666 89.1652 0.704 90.0185 0.704C91.1598 0.704 92.0612 0.976 92.7225 1.52C93.3945 2.05333 93.7305 2.78933 93.7305 3.728C93.7305 4.304 93.6025 4.85867 93.3465 5.392C93.0905 5.92533 92.6052 6.53867 91.8905 7.232L88.0825 10.976H94.2425ZM105.633 9.056H103.393V12H102.241V9.056H95.9213V8.224L101.857 0.799999H103.137L97.4093 8.032H102.273V5.44H103.393V8.032H105.633V9.056ZM107.776 7.168H111.968V8.16H107.776V7.168ZM119.146 12.096C118.282 12.096 117.509 11.8667 116.826 11.408C116.154 10.9493 115.626 10.2933 115.242 9.44C114.869 8.576 114.682 7.56267 114.682 6.4C114.682 5.23733 114.869 4.22933 115.242 3.376C115.626 2.512 116.154 1.85067 116.826 1.392C117.509 0.933333 118.282 0.704 119.146 0.704C120.01 0.704 120.778 0.933333 121.45 1.392C122.133 1.85067 122.666 2.512 123.05 3.376C123.434 4.22933 123.626 5.23733 123.626 6.4C123.626 7.56267 123.434 8.576 123.05 9.44C122.666 10.2933 122.133 10.9493 121.45 11.408C120.778 11.8667 120.01 12.096 119.146 12.096ZM119.146 11.04C119.797 11.04 120.367 10.8587 120.858 10.496C121.359 10.1333 121.749 9.60533 122.026 8.912C122.303 8.21867 122.442 7.38133 122.442 6.4C122.442 5.41867 122.303 4.58133 122.026 3.888C121.749 3.19467 121.359 2.66667 120.858 2.304C120.367 1.94133 119.797 1.76 119.146 1.76C118.495 1.76 117.919 1.94133 117.418 2.304C116.927 2.66667 116.543 3.19467 116.266 3.888C115.989 4.58133 115.85 5.41867 115.85 6.4C115.85 7.38133 115.989 8.21867 116.266 8.912C116.543 9.60533 116.927 10.1333 117.418 10.496C117.919 10.8587 118.495 11.04 119.146 11.04ZM133.855 0.799999V1.616L129.167 12H127.919L132.527 1.824H126.767V3.92H125.631V0.799999H133.855ZM139.84 5.6C141.013 5.664 141.904 5.984 142.512 6.56C143.131 7.12533 143.44 7.86667 143.44 8.784C143.44 9.424 143.285 9.99467 142.976 10.496C142.667 10.9867 142.208 11.376 141.6 11.664C140.992 11.952 140.251 12.096 139.376 12.096C138.565 12.096 137.797 11.968 137.072 11.712C136.357 11.4453 135.781 11.0933 135.344 10.656L135.904 9.744C136.277 10.128 136.773 10.4427 137.392 10.688C138.011 10.9227 138.672 11.04 139.376 11.04C140.293 11.04 141.003 10.8427 141.504 10.448C142.005 10.0427 142.256 9.488 142.256 8.784C142.256 8.09067 142.005 7.54667 141.504 7.152C141.003 6.75733 140.245 6.56 139.232 6.56H138.432V5.712L141.536 1.824H135.808V0.799999H143.008V1.616L139.84 5.6ZM159.763 10.976V12H151.843V0.799999H159.523V1.824H153.027V5.808H158.819V6.816H153.027V10.976H159.763ZM167.858 12.096C166.407 12.096 165.277 11.68 164.466 10.848C163.655 10.016 163.25 8.80533 163.25 7.216V0.799999H164.434V7.168C164.434 8.46933 164.727 9.44 165.314 10.08C165.901 10.72 166.749 11.04 167.858 11.04C168.978 11.04 169.831 10.72 170.418 10.08C171.005 9.44 171.298 8.46933 171.298 7.168V0.799999H172.45V7.216C172.45 8.80533 172.045 10.016 171.234 10.848C170.434 11.68 169.309 12.096 167.858 12.096ZM185.346 9.056H183.106V12H181.954V9.056H175.634V8.224L181.57 0.799999H182.85L177.122 8.032H181.986V5.44H183.106V8.032H185.346V9.056ZM191.668 12.096C190.804 12.096 190.031 11.8667 189.348 11.408C188.676 10.9493 188.148 10.2933 187.764 9.44C187.391 8.576 187.204 7.56267 187.204 6.4C187.204 5.23733 187.391 4.22933 187.764 3.376C188.148 2.512 188.676 1.85067 189.348 1.392C190.031 0.933333 190.804 0.704 191.668 0.704C192.532 0.704 193.3 0.933333 193.972 1.392C194.655 1.85067 195.188 2.512 195.572 3.376C195.956 4.22933 196.148 5.23733 196.148 6.4C196.148 7.56267 195.956 8.576 195.572 9.44C195.188 10.2933 194.655 10.9493 193.972 11.408C193.3 11.8667 192.532 12.096 191.668 12.096ZM191.668 11.04C192.319 11.04 192.889 10.8587 193.38 10.496C193.881 10.1333 194.271 9.60533 194.548 8.912C194.825 8.21867 194.964 7.38133 194.964 6.4C194.964 5.41867 194.825 4.58133 194.548 3.888C194.271 3.19467 193.881 2.66667 193.38 2.304C192.889 1.94133 192.319 1.76 191.668 1.76C191.017 1.76 190.441 1.94133 189.94 2.304C189.449 2.66667 189.065 3.19467 188.788 3.888C188.511 4.58133 188.372 5.41867 188.372 6.4C188.372 7.38133 188.511 8.21867 188.788 8.912C189.065 9.60533 189.449 10.1333 189.94 10.496C190.441 10.8587 191.017 11.04 191.668 11.04ZM199.29 12.08C199.055 12.08 198.852 11.9947 198.682 11.824C198.522 11.6533 198.442 11.4453 198.442 11.2C198.442 10.9547 198.522 10.752 198.682 10.592C198.852 10.4213 199.055 10.336 199.29 10.336C199.524 10.336 199.727 10.4213 199.898 10.592C200.068 10.752 200.154 10.9547 200.154 11.2C200.154 11.4453 200.068 11.6533 199.898 11.824C199.727 11.9947 199.524 12.08 199.29 12.08ZM205.56 5.392C207.182 5.392 208.36 5.68533 209.096 6.272C209.843 6.848 210.216 7.65867 210.216 8.704C210.216 9.35467 210.062 9.936 209.752 10.448C209.454 10.96 209 11.3653 208.392 11.664C207.784 11.952 207.038 12.096 206.152 12.096C205.352 12.096 204.59 11.968 203.864 11.712C203.15 11.4453 202.574 11.0933 202.136 10.656L202.696 9.744C203.07 10.128 203.56 10.4427 204.168 10.688C204.776 10.9227 205.432 11.04 206.136 11.04C207.064 11.04 207.779 10.832 208.28 10.416C208.792 10 209.048 9.44533 209.048 8.752C209.048 7.984 208.76 7.40267 208.184 7.008C207.619 6.61333 206.659 6.416 205.304 6.416H202.92L203.496 0.799999H209.624V1.824H204.504L204.12 5.392H205.56ZM212.607 7.168H216.799V8.16H212.607V7.168ZM228.3 10.976V12H220.38V0.799999H228.06V1.824H221.564V5.808H227.356V6.816H221.564V10.976H228.3ZM236.395 12.096C234.945 12.096 233.814 11.68 233.003 10.848C232.193 10.016 231.787 8.80533 231.787 7.216V0.799999H232.971V7.168C232.971 8.46933 233.265 9.44 233.851 10.08C234.438 10.72 235.286 11.04 236.395 11.04C237.515 11.04 238.369 10.72 238.955 10.08C239.542 9.44 239.835 8.46933 239.835 7.168V0.799999H240.987V7.216C240.987 8.80533 240.582 10.016 239.771 10.848C238.971 11.68 237.846 12.096 236.395 12.096ZM253.883 9.056H251.643V12H250.491V9.056H244.171V8.224L250.107 0.799999H251.387L245.659 8.032H250.523V5.44H251.643V8.032H253.883V9.056ZM262.849 0.799999V1.616L258.161 12H256.913L261.521 1.824H255.761V3.92H254.625V0.799999H262.849ZM4.912 32.096C4.08 32.096 3.28 31.9627 2.512 31.696C1.75467 31.4293 1.168 31.0773 0.752 30.64L1.216 29.728C1.62133 30.1333 2.16 30.464 2.832 30.72C3.504 30.9653 4.19733 31.088 4.912 31.088C5.91467 31.088 6.66667 30.9067 7.168 30.544C7.66933 30.1707 7.92 29.6907 7.92 29.104C7.92 28.656 7.78133 28.2987 7.504 28.032C7.23733 27.7653 6.90667 27.5627 6.512 27.424C6.11733 27.2747 5.568 27.1147 4.864 26.944C4.02133 26.7307 3.34933 26.528 2.848 26.336C2.34667 26.1333 1.91467 25.8293 1.552 25.424C1.2 25.0187 1.024 24.4693 1.024 23.776C1.024 23.2107 1.17333 22.6987 1.472 22.24C1.77067 21.7707 2.22933 21.3973 2.848 21.12C3.46667 20.8427 4.23467 20.704 5.152 20.704C5.792 20.704 6.416 20.7947 7.024 20.976C7.64267 21.1467 8.176 21.3867 8.624 21.696L8.224 22.64C7.75467 22.3307 7.25333 22.1013 6.72 21.952C6.18667 21.792 5.664 21.712 5.152 21.712C4.17067 21.712 3.42933 21.904 2.928 22.288C2.43733 22.6613 2.192 23.1467 2.192 23.744C2.192 24.192 2.32533 24.5547 2.592 24.832C2.86933 25.0987 3.21067 25.3067 3.616 25.456C4.032 25.5947 4.58667 25.7493 5.28 25.92C6.10133 26.1227 6.76267 26.3253 7.264 26.528C7.776 26.72 8.208 27.0187 8.56 27.424C8.912 27.8187 9.088 28.3573 9.088 29.04C9.088 29.6053 8.93333 30.1227 8.624 30.592C8.32533 31.0507 7.86133 31.4187 7.232 31.696C6.60267 31.9627 5.82933 32.096 4.912 32.096ZM15.9398 26.736L13.6518 29.056V32H12.4678V20.8H13.6518V27.568L20.2278 20.8H21.5878L16.7398 25.872L21.9238 32H20.5158L15.9398 26.736ZM28.9985 32.096C27.5478 32.096 26.4172 31.68 25.6065 30.848C24.7958 30.016 24.3905 28.8053 24.3905 27.216V20.8H25.5745V27.168C25.5745 28.4693 25.8678 29.44 26.4545 30.08C27.0412 30.72 27.8892 31.04 28.9985 31.04C30.1185 31.04 30.9718 30.72 31.5585 30.08C32.1452 29.44 32.4385 28.4693 32.4385 27.168V20.8H33.5905V27.216C33.5905 28.8053 33.1852 30.016 32.3745 30.848C31.5745 31.68 30.4492 32.096 28.9985 32.096ZM37.8304 25.264C37.5957 25.264 37.393 25.1787 37.2224 25.008C37.0624 24.8373 36.9824 24.6293 36.9824 24.384C36.9824 24.1387 37.0624 23.936 37.2224 23.776C37.393 23.6053 37.5957 23.52 37.8304 23.52C38.065 23.52 38.2677 23.6053 38.4384 23.776C38.609 23.936 38.6944 24.1387 38.6944 24.384C38.6944 24.6293 38.609 24.8373 38.4384 25.008C38.2677 25.1787 38.065 25.264 37.8304 25.264ZM37.8304 32.08C37.5957 32.08 37.393 31.9947 37.2224 31.824C37.0624 31.6533 36.9824 31.4453 36.9824 31.2C36.9824 30.9547 37.0624 30.752 37.2224 30.592C37.393 30.4213 37.5957 30.336 37.8304 30.336C38.065 30.336 38.2677 30.4213 38.4384 30.592C38.609 30.752 38.6944 30.9547 38.6944 31.2C38.6944 31.4453 38.609 31.6533 38.4384 31.824C38.2677 31.9947 38.065 32.08 37.8304 32.08ZM49.0885 25.392C50.7098 25.392 51.8885 25.6853 52.6245 26.272C53.3712 26.848 53.7445 27.6587 53.7445 28.704C53.7445 29.3547 53.5898 29.936 53.2805 30.448C52.9818 30.96 52.5285 31.3653 51.9205 31.664C51.3125 31.952 50.5658 32.096 49.6805 32.096C48.8805 32.096 48.1178 31.968 47.3925 31.712C46.6778 31.4453 46.1018 31.0933 45.6645 30.656L46.2245 29.744C46.5978 30.128 47.0885 30.4427 47.6965 30.688C48.3045 30.9227 48.9605 31.04 49.6645 31.04C50.5925 31.04 51.3072 30.832 51.8085 30.416C52.3205 30 52.5765 29.4453 52.5765 28.752C52.5765 27.984 52.2885 27.4027 51.7125 27.008C51.1472 26.6133 50.1872 26.416 48.8325 26.416H46.4485L47.0245 20.8H53.1525V21.824H48.0325L47.6485 25.392H49.0885ZM58.8729 25.392C60.4942 25.392 61.6729 25.6853 62.4089 26.272C63.1555 26.848 63.5289 27.6587 63.5289 28.704C63.5289 29.3547 63.3742 29.936 63.0649 30.448C62.7662 30.96 62.3129 31.3653 61.7049 31.664C61.0969 31.952 60.3502 32.096 59.4649 32.096C58.6649 32.096 57.9022 31.968 57.1769 31.712C56.4622 31.4453 55.8862 31.0933 55.4489 30.656L56.0089 29.744C56.3822 30.128 56.8729 30.4427 57.4809 30.688C58.0889 30.9227 58.7449 31.04 59.4489 31.04C60.3769 31.04 61.0915 30.832 61.5929 30.416C62.1049 30 62.3609 29.4453 62.3609 28.752C62.3609 27.984 62.0729 27.4027 61.4969 27.008C60.9315 26.6133 59.9715 26.416 58.6169 26.416H56.2329L56.8089 20.8H62.9369V21.824H57.8169L57.4329 25.392H58.8729ZM75.3114 29.056H73.0714V32H71.9194V29.056H65.5994V28.224L71.5354 20.8H72.8154L67.0874 28.032H71.9514V25.44H73.0714V28.032H75.3114V29.056ZM84.2766 20.8V21.616L79.5886 32H78.3406L82.9486 21.824H77.1886V23.92H76.0526V20.8H84.2766ZM94.2425 30.976V32H86.3865V31.184L91.0425 26.624C91.6292 26.048 92.0238 25.552 92.2265 25.136C92.4398 24.7093 92.5465 24.2827 92.5465 23.856C92.5465 23.1947 92.3172 22.6827 91.8585 22.32C91.4105 21.9467 90.7652 21.76 89.9225 21.76C88.6105 21.76 87.5918 22.176 86.8665 23.008L86.0505 22.304C86.4878 21.792 87.0425 21.3973 87.7145 21.12C88.3972 20.8427 89.1652 20.704 90.0185 20.704C91.1598 20.704 92.0612 20.976 92.7225 21.52C93.3945 22.0533 93.7305 22.7893 93.7305 23.728C93.7305 24.304 93.6025 24.8587 93.3465 25.392C93.0905 25.9253 92.6052 26.5387 91.8905 27.232L88.0825 30.976H94.2425ZM99.4323 25.392C101.054 25.392 102.232 25.6853 102.968 26.272C103.715 26.848 104.088 27.6587 104.088 28.704C104.088 29.3547 103.934 29.936 103.624 30.448C103.326 30.96 102.872 31.3653 102.264 31.664C101.656 31.952 100.91 32.096 100.024 32.096C99.2243 32.096 98.4616 31.968 97.7363 31.712C97.0216 31.4453 96.4456 31.0933 96.0083 30.656L96.5683 29.744C96.9416 30.128 97.4323 30.4427 98.0403 30.688C98.6483 30.9227 99.3043 31.04 100.008 31.04C100.936 31.04 101.651 30.832 102.152 30.416C102.664 30 102.92 29.4453 102.92 28.752C102.92 27.984 102.632 27.4027 102.056 27.008C101.491 26.6133 100.531 26.416 99.1763 26.416H96.7923L97.3683 20.8H103.496V21.824H98.3763L97.9923 25.392H99.4323ZM106.479 27.168H110.671V28.16H106.479V27.168ZM117.849 32.096C116.985 32.096 116.212 31.8667 115.529 31.408C114.857 30.9493 114.329 30.2933 113.945 29.44C113.572 28.576 113.385 27.5627 113.385 26.4C113.385 25.2373 113.572 24.2293 113.945 23.376C114.329 22.512 114.857 21.8507 115.529 21.392C116.212 20.9333 116.985 20.704 117.849 20.704C118.713 20.704 119.481 20.9333 120.153 21.392C120.836 21.8507 121.369 22.512 121.753 23.376C122.137 24.2293 122.329 25.2373 122.329 26.4C122.329 27.5627 122.137 28.576 121.753 29.44C121.369 30.2933 120.836 30.9493 120.153 31.408C119.481 31.8667 118.713 32.096 117.849 32.096ZM117.849 31.04C118.5 31.04 119.07 30.8587 119.561 30.496C120.062 30.1333 120.452 29.6053 120.729 28.912C121.006 28.2187 121.145 27.3813 121.145 26.4C121.145 25.4187 121.006 24.5813 120.729 23.888C120.452 23.1947 120.062 22.6667 119.561 22.304C119.07 21.9413 118.5 21.76 117.849 21.76C117.198 21.76 116.622 21.9413 116.121 22.304C115.63 22.6667 115.246 23.1947 114.969 23.888C114.692 24.5813 114.553 25.4187 114.553 26.4C114.553 27.3813 114.692 28.2187 114.969 28.912C115.246 29.6053 115.63 30.1333 116.121 30.496C116.622 30.8587 117.198 31.04 117.849 31.04ZM132.558 20.8V21.616L127.87 32H126.622L131.23 21.824H125.47V23.92H124.334V20.8H132.558ZM138.543 25.6C139.716 25.664 140.607 25.984 141.215 26.56C141.834 27.1253 142.143 27.8667 142.143 28.784C142.143 29.424 141.988 29.9947 141.679 30.496C141.37 30.9867 140.911 31.376 140.303 31.664C139.695 31.952 138.954 32.096 138.079 32.096C137.268 32.096 136.5 31.968 135.775 31.712C135.06 31.4453 134.484 31.0933 134.047 30.656L134.607 29.744C134.98 30.128 135.476 30.4427 136.095 30.688C136.714 30.9227 137.375 31.04 138.079 31.04C138.996 31.04 139.706 30.8427 140.207 30.448C140.708 30.0427 140.959 29.488 140.959 28.784C140.959 28.0907 140.708 27.5467 140.207 27.152C139.706 26.7573 138.948 26.56 137.935 26.56H137.135V25.712L140.239 21.824H134.511V20.8H141.711V21.616L138.543 25.6ZM152.242 35.104C151.645 34.1227 151.186 32.9973 150.866 31.728C150.546 30.448 150.386 29.0773 150.386 27.616C150.386 26.1547 150.546 24.784 150.866 23.504C151.186 22.2133 151.645 21.088 152.242 20.128H153.33C152.701 21.2053 152.237 22.3627 151.938 23.6C151.65 24.8373 151.506 26.176 151.506 27.616C151.506 29.056 151.65 30.3947 151.938 31.632C152.237 32.8693 152.701 34.0267 153.33 35.104H152.242ZM164.5 26.4H165.636V30.672C165.113 31.1307 164.494 31.4827 163.78 31.728C163.065 31.9733 162.313 32.096 161.524 32.096C160.404 32.096 159.396 31.8507 158.5 31.36C157.604 30.8693 156.9 30.192 156.388 29.328C155.876 28.4533 155.62 27.4773 155.62 26.4C155.62 25.3227 155.876 24.352 156.388 23.488C156.9 22.6133 157.604 21.9307 158.5 21.44C159.396 20.9493 160.409 20.704 161.54 20.704C162.393 20.704 163.177 20.8427 163.892 21.12C164.606 21.3867 165.209 21.7867 165.7 22.32L164.964 23.072C164.078 22.1973 162.953 21.76 161.588 21.76C160.681 21.76 159.86 21.9627 159.124 22.368C158.398 22.7627 157.828 23.3173 157.412 24.032C156.996 24.736 156.788 25.5253 156.788 26.4C156.788 27.2747 156.996 28.064 157.412 28.768C157.828 29.472 158.398 30.0267 159.124 30.432C159.849 30.8373 160.665 31.04 161.572 31.04C162.724 31.04 163.7 30.752 164.5 30.176V26.4ZM172.874 32.096C172.042 32.096 171.242 31.9627 170.474 31.696C169.717 31.4293 169.13 31.0773 168.714 30.64L169.178 29.728C169.584 30.1333 170.122 30.464 170.794 30.72C171.466 30.9653 172.16 31.088 172.874 31.088C173.877 31.088 174.629 30.9067 175.13 30.544C175.632 30.1707 175.882 29.6907 175.882 29.104C175.882 28.656 175.744 28.2987 175.466 28.032C175.2 27.7653 174.869 27.5627 174.474 27.424C174.08 27.2747 173.53 27.1147 172.826 26.944C171.984 26.7307 171.312 26.528 170.81 26.336C170.309 26.1333 169.877 25.8293 169.514 25.424C169.162 25.0187 168.986 24.4693 168.986 23.776C168.986 23.2107 169.136 22.6987 169.434 22.24C169.733 21.7707 170.192 21.3973 170.81 21.12C171.429 20.8427 172.197 20.704 173.114 20.704C173.754 20.704 174.378 20.7947 174.986 20.976C175.605 21.1467 176.138 21.3867 176.586 21.696L176.186 22.64C175.717 22.3307 175.216 22.1013 174.682 21.952C174.149 21.792 173.626 21.712 173.114 21.712C172.133 21.712 171.392 21.904 170.89 22.288C170.4 22.6613 170.154 23.1467 170.154 23.744C170.154 24.192 170.288 24.5547 170.554 24.832C170.832 25.0987 171.173 25.3067 171.578 25.456C171.994 25.5947 172.549 25.7493 173.242 25.92C174.064 26.1227 174.725 26.3253 175.226 26.528C175.738 26.72 176.17 27.0187 176.522 27.424C176.874 27.8187 177.05 28.3573 177.05 29.04C177.05 29.6053 176.896 30.1227 176.586 30.592C176.288 31.0507 175.824 31.4187 175.194 31.696C174.565 31.9627 173.792 32.096 172.874 32.096ZM179.246 35.104C179.876 34.0267 180.34 32.8747 180.638 31.648C180.937 30.4107 181.086 29.0667 181.086 27.616C181.086 26.1653 180.937 24.8267 180.638 23.6C180.34 22.3627 179.876 21.2053 179.246 20.128H180.334C180.932 21.088 181.39 22.2133 181.71 23.504C182.041 24.784 182.206 26.1547 182.206 27.616C182.206 29.0773 182.046 30.448 181.726 31.728C181.406 33.008 180.942 34.1333 180.334 35.104H179.246ZM199.403 30.976V32H191.483V20.8H199.163V21.824H192.667V25.808H198.459V26.816H192.667V30.976H199.403ZM207.499 32.096C206.048 32.096 204.917 31.68 204.107 30.848C203.296 30.016 202.891 28.8053 202.891 27.216V20.8H204.075V27.168C204.075 28.4693 204.368 29.44 204.955 30.08C205.541 30.72 206.389 31.04 207.499 31.04C208.619 31.04 209.472 30.72 210.059 30.08C210.645 29.44 210.939 28.4693 210.939 27.168V20.8H212.091V27.216C212.091 28.8053 211.685 30.016 210.875 30.848C210.075 31.68 208.949 32.096 207.499 32.096ZM219.274 25.6C220.448 25.664 221.338 25.984 221.946 26.56C222.565 27.1253 222.874 27.8667 222.874 28.784C222.874 29.424 222.72 29.9947 222.41 30.496C222.101 30.9867 221.642 31.376 221.034 31.664C220.426 31.952 219.685 32.096 218.81 32.096C218 32.096 217.232 31.968 216.506 31.712C215.792 31.4453 215.216 31.0933 214.778 30.656L215.338 29.744C215.712 30.128 216.208 30.4427 216.826 30.688C217.445 30.9227 218.106 31.04 218.81 31.04C219.728 31.04 220.437 30.8427 220.938 30.448C221.44 30.0427 221.69 29.488 221.69 28.784C221.69 28.0907 221.44 27.5467 220.938 27.152C220.437 26.7573 219.68 26.56 218.666 26.56H217.866V25.712L220.97 21.824H215.242V20.8H222.442V21.616L219.274 25.6ZM229.938 25.296C230.674 25.296 231.324 25.4347 231.89 25.712C232.466 25.9893 232.914 26.384 233.234 26.896C233.554 27.3973 233.714 27.984 233.714 28.656C233.714 29.3387 233.548 29.9413 233.218 30.464C232.887 30.9867 232.428 31.392 231.842 31.68C231.266 31.9573 230.615 32.096 229.89 32.096C228.407 32.096 227.271 31.6107 226.482 30.64C225.692 29.6587 225.298 28.2773 225.298 26.496C225.298 25.248 225.511 24.192 225.938 23.328C226.364 22.464 226.962 21.8133 227.73 21.376C228.498 20.928 229.394 20.704 230.418 20.704C231.527 20.704 232.412 20.9067 233.074 21.312L232.61 22.24C232.076 21.888 231.351 21.712 230.434 21.712C229.196 21.712 228.226 22.1067 227.522 22.896C226.818 23.6747 226.466 24.8107 226.466 26.304C226.466 26.5707 226.482 26.8747 226.514 27.216C226.791 26.608 227.234 26.1387 227.842 25.808C228.45 25.4667 229.148 25.296 229.938 25.296ZM229.842 31.12C230.652 31.12 231.308 30.9013 231.81 30.464C232.322 30.016 232.578 29.424 232.578 28.688C232.578 27.952 232.322 27.3653 231.81 26.928C231.308 26.4907 230.626 26.272 229.762 26.272C229.196 26.272 228.695 26.3787 228.258 26.592C227.831 26.8053 227.495 27.0987 227.25 27.472C227.004 27.8453 226.882 28.2613 226.882 28.72C226.882 29.1467 226.994 29.5413 227.218 29.904C227.452 30.2667 227.794 30.56 228.242 30.784C228.69 31.008 229.223 31.12 229.842 31.12ZM236.054 27.168H240.246V28.16H236.054V27.168ZM251.747 30.976V32H243.827V20.8H251.507V21.824H245.011V25.808H250.803V26.816H245.011V30.976H251.747ZM259.842 32.096C258.392 32.096 257.261 31.68 256.45 30.848C255.64 30.016 255.234 28.8053 255.234 27.216V20.8H256.418V27.168C256.418 28.4693 256.712 29.44 257.298 30.08C257.885 30.72 258.733 31.04 259.842 31.04C260.962 31.04 261.816 30.72 262.402 30.08C262.989 29.44 263.282 28.4693 263.282 27.168V20.8H264.434V27.216C264.434 28.8053 264.029 30.016 263.218 30.848C262.418 31.68 261.293 32.096 259.842 32.096ZM277.33 29.056H275.09V32H273.938V29.056H267.618V28.224L273.554 20.8H274.834L269.106 28.032H273.97V25.44H275.09V28.032H277.33V29.056ZM283.652 32.096C282.788 32.096 282.015 31.8667 281.332 31.408C280.66 30.9493 280.132 30.2933 279.748 29.44C279.375 28.576 279.188 27.5627 279.188 26.4C279.188 25.2373 279.375 24.2293 279.748 23.376C280.132 22.512 280.66 21.8507 281.332 21.392C282.015 20.9333 282.788 20.704 283.652 20.704C284.516 20.704 285.284 20.9333 285.956 21.392C286.639 21.8507 287.172 22.512 287.556 23.376C287.94 24.2293 288.132 25.2373 288.132 26.4C288.132 27.5627 287.94 28.576 287.556 29.44C287.172 30.2933 286.639 30.9493 285.956 31.408C285.284 31.8667 284.516 32.096 283.652 32.096ZM283.652 31.04C284.303 31.04 284.874 30.8587 285.364 30.496C285.866 30.1333 286.255 29.6053 286.532 28.912C286.81 28.2187 286.948 27.3813 286.948 26.4C286.948 25.4187 286.81 24.5813 286.532 23.888C286.255 23.1947 285.866 22.6667 285.364 22.304C284.874 21.9413 284.303 21.76 283.652 21.76C283.002 21.76 282.426 21.9413 281.924 22.304C281.434 22.6667 281.05 23.1947 280.772 23.888C280.495 24.5813 280.356 25.4187 280.356 26.4C280.356 27.3813 280.495 28.2187 280.772 28.912C281.05 29.6053 281.434 30.1333 281.924 30.496C282.426 30.8587 283.002 31.04 283.652 31.04ZM9.472 52L6.912 48.4C6.624 48.432 6.32533 48.448 6.016 48.448H3.008V52H1.824V40.8H6.016C7.44533 40.8 8.56533 41.1413 9.376 41.824C10.1867 42.5067 10.592 43.4453 10.592 44.64C10.592 45.5147 10.368 46.256 9.92 46.864C9.48267 47.4613 8.85333 47.8933 8.032 48.16L10.768 52H9.472ZM5.984 47.44C7.09333 47.44 7.94133 47.1947 8.528 46.704C9.11467 46.2133 9.408 45.5253 9.408 44.64C9.408 43.7333 9.11467 43.04 8.528 42.56C7.94133 42.0693 7.09333 41.824 5.984 41.824H3.008V47.44H5.984ZM21.2745 48.144H14.2345C14.2985 49.0187 14.6345 49.728 15.2425 50.272C15.8505 50.8053 16.6185 51.072 17.5465 51.072C18.0692 51.072 18.5492 50.9813 18.9865 50.8C19.4238 50.608 19.8025 50.3307 20.1225 49.968L20.7625 50.704C20.3892 51.152 19.9198 51.4933 19.3545 51.728C18.7998 51.9627 18.1865 52.08 17.5145 52.08C16.6505 52.08 15.8825 51.8987 15.2105 51.536C14.5492 51.1627 14.0318 50.6507 13.6585 50C13.2852 49.3493 13.0985 48.6133 13.0985 47.792C13.0985 46.9707 13.2745 46.2347 13.6265 45.584C13.9892 44.9333 14.4798 44.4267 15.0985 44.064C15.7278 43.7013 16.4318 43.52 17.2105 43.52C17.9892 43.52 18.6878 43.7013 19.3065 44.064C19.9252 44.4267 20.4105 44.9333 20.7625 45.584C21.1145 46.224 21.2905 46.96 21.2905 47.792L21.2745 48.144ZM17.2105 44.496C16.3998 44.496 15.7172 44.7573 15.1625 45.28C14.6185 45.792 14.3092 46.464 14.2345 47.296H20.2025C20.1278 46.464 19.8132 45.792 19.2585 45.28C18.7145 44.7573 18.0318 44.496 17.2105 44.496ZM24.4028 40.128H25.5388V52H24.4028V40.128ZM36.8276 48.144H29.7876C29.8516 49.0187 30.1876 49.728 30.7956 50.272C31.4036 50.8053 32.1716 51.072 33.0996 51.072C33.6223 51.072 34.1023 50.9813 34.5396 50.8C34.977 50.608 35.3556 50.3307 35.6756 49.968L36.3156 50.704C35.9423 51.152 35.473 51.4933 34.9076 51.728C34.353 51.9627 33.7396 52.08 33.0676 52.08C32.2036 52.08 31.4356 51.8987 30.7636 51.536C30.1023 51.1627 29.585 50.6507 29.2116 50C28.8383 49.3493 28.6516 48.6133 28.6516 47.792C28.6516 46.9707 28.8276 46.2347 29.1796 45.584C29.5423 44.9333 30.033 44.4267 30.6516 44.064C31.281 43.7013 31.985 43.52 32.7636 43.52C33.5423 43.52 34.241 43.7013 34.8596 44.064C35.4783 44.4267 35.9636 44.9333 36.3156 45.584C36.6676 46.224 36.8436 46.96 36.8436 47.792L36.8276 48.144ZM32.7636 44.496C31.953 44.496 31.2703 44.7573 30.7156 45.28C30.1716 45.792 29.8623 46.464 29.7876 47.296H35.7556C35.681 46.464 35.3663 45.792 34.8116 45.28C34.2676 44.7573 33.585 44.496 32.7636 44.496ZM42.6655 43.52C43.7642 43.52 44.6068 43.7973 45.1935 44.352C45.7802 44.896 46.0735 45.7067 46.0735 46.784V52H44.9855V50.688C44.7295 51.1253 44.3508 51.4667 43.8495 51.712C43.3588 51.9573 42.7722 52.08 42.0895 52.08C41.1508 52.08 40.4042 51.856 39.8495 51.408C39.2948 50.96 39.0175 50.368 39.0175 49.632C39.0175 48.9173 39.2735 48.3413 39.7855 47.904C40.3082 47.4667 41.1348 47.248 42.2655 47.248H44.9375V46.736C44.9375 46.0107 44.7348 45.4613 44.3295 45.088C43.9242 44.704 43.3322 44.512 42.5535 44.512C42.0202 44.512 41.5082 44.6027 41.0175 44.784C40.5268 44.9547 40.1055 45.1947 39.7535 45.504L39.2415 44.656C39.6682 44.2933 40.1802 44.016 40.7775 43.824C41.3748 43.6213 42.0042 43.52 42.6655 43.52ZM42.2655 51.184C42.9055 51.184 43.4548 51.04 43.9135 50.752C44.3722 50.4533 44.7135 50.0267 44.9375 49.472V48.096H42.2975C40.8575 48.096 40.1375 48.5973 40.1375 49.6C40.1375 50.0907 40.3242 50.48 40.6975 50.768C41.0708 51.0453 41.5935 51.184 42.2655 51.184ZM52.215 52.08C51.5323 52.08 50.8763 51.984 50.247 51.792C49.6283 51.5893 49.143 51.3387 48.791 51.04L49.303 50.144C49.655 50.4213 50.0977 50.6507 50.631 50.832C51.1643 51.0027 51.719 51.088 52.295 51.088C53.063 51.088 53.6283 50.9707 53.991 50.736C54.3643 50.4907 54.551 50.1493 54.551 49.712C54.551 49.4027 54.4497 49.1627 54.247 48.992C54.0443 48.8107 53.7883 48.6773 53.479 48.592C53.1697 48.496 52.759 48.4053 52.247 48.32C51.5643 48.192 51.015 48.064 50.599 47.936C50.183 47.7973 49.8257 47.568 49.527 47.248C49.239 46.928 49.095 46.4853 49.095 45.92C49.095 45.216 49.3883 44.64 49.975 44.192C50.5617 43.744 51.3777 43.52 52.423 43.52C52.967 43.52 53.511 43.5947 54.055 43.744C54.599 43.8827 55.047 44.0693 55.399 44.304L54.903 45.216C54.2097 44.736 53.383 44.496 52.423 44.496C51.6977 44.496 51.1483 44.624 50.775 44.88C50.4123 45.136 50.231 45.472 50.231 45.888C50.231 46.208 50.3323 46.464 50.535 46.656C50.7483 46.848 51.0097 46.992 51.319 47.088C51.6283 47.1733 52.055 47.264 52.599 47.36C53.271 47.488 53.8097 47.616 54.215 47.744C54.6203 47.872 54.967 48.0907 55.255 48.4C55.543 48.7093 55.687 49.136 55.687 49.68C55.687 50.416 55.3777 51.0027 54.759 51.44C54.151 51.8667 53.303 52.08 52.215 52.08ZM65.9151 48.144H58.8751C58.9391 49.0187 59.2751 49.728 59.8831 50.272C60.4911 50.8053 61.2591 51.072 62.1871 51.072C62.7098 51.072 63.1898 50.9813 63.6271 50.8C64.0645 50.608 64.4431 50.3307 64.7631 49.968L65.4031 50.704C65.0298 51.152 64.5605 51.4933 63.9951 51.728C63.4405 51.9627 62.8271 52.08 62.1551 52.08C61.2911 52.08 60.5231 51.8987 59.8511 51.536C59.1898 51.1627 58.6725 50.6507 58.2991 50C57.9258 49.3493 57.7391 48.6133 57.7391 47.792C57.7391 46.9707 57.9151 46.2347 58.2671 45.584C58.6298 44.9333 59.1205 44.4267 59.7391 44.064C60.3685 43.7013 61.0725 43.52 61.8511 43.52C62.6298 43.52 63.3285 43.7013 63.9471 44.064C64.5658 44.4267 65.0511 44.9333 65.4031 45.584C65.7551 46.224 65.9311 46.96 65.9311 47.792L65.9151 48.144ZM61.8511 44.496C61.0405 44.496 60.3578 44.7573 59.8031 45.28C59.2591 45.792 58.9498 46.464 58.8751 47.296H64.8431C64.7685 46.464 64.4538 45.792 63.8991 45.28C63.3551 44.7573 62.6725 44.496 61.8511 44.496ZM81.7109 40.128V52H80.6229V50.336C80.2815 50.9013 79.8282 51.3333 79.2629 51.632C78.7082 51.9307 78.0789 52.08 77.3749 52.08C76.5855 52.08 75.8709 51.8987 75.2309 51.536C74.5909 51.1733 74.0895 50.6667 73.7269 50.016C73.3642 49.3653 73.1829 48.624 73.1829 47.792C73.1829 46.96 73.3642 46.2187 73.7269 45.568C74.0895 44.9173 74.5909 44.416 75.2309 44.064C75.8709 43.7013 76.5855 43.52 77.3749 43.52C78.0575 43.52 78.6709 43.664 79.2149 43.952C79.7695 44.2293 80.2229 44.64 80.5749 45.184V40.128H81.7109ZM77.4709 51.072C78.0575 51.072 78.5855 50.9387 79.0549 50.672C79.5349 50.3947 79.9082 50.0053 80.1749 49.504C80.4522 49.0027 80.5909 48.432 80.5909 47.792C80.5909 47.152 80.4522 46.5813 80.1749 46.08C79.9082 45.5787 79.5349 45.1947 79.0549 44.928C78.5855 44.6507 78.0575 44.512 77.4709 44.512C76.8735 44.512 76.3349 44.6507 75.8549 44.928C75.3855 45.1947 75.0122 45.5787 74.7349 46.08C74.4682 46.5813 74.3349 47.152 74.3349 47.792C74.3349 48.432 74.4682 49.0027 74.7349 49.504C75.0122 50.0053 75.3855 50.3947 75.8549 50.672C76.3349 50.9387 76.8735 51.072 77.4709 51.072ZM88.6186 43.52C89.7173 43.52 90.56 43.7973 91.1466 44.352C91.7333 44.896 92.0266 45.7067 92.0266 46.784V52H90.9386V50.688C90.6826 51.1253 90.304 51.4667 89.8026 51.712C89.312 51.9573 88.7253 52.08 88.0426 52.08C87.104 52.08 86.3573 51.856 85.8026 51.408C85.248 50.96 84.9706 50.368 84.9706 49.632C84.9706 48.9173 85.2266 48.3413 85.7386 47.904C86.2613 47.4667 87.088 47.248 88.2186 47.248H90.8906V46.736C90.8906 46.0107 90.688 45.4613 90.2826 45.088C89.8773 44.704 89.2853 44.512 88.5066 44.512C87.9733 44.512 87.4613 44.6027 86.9706 44.784C86.48 44.9547 86.0586 45.1947 85.7066 45.504L85.1946 44.656C85.6213 44.2933 86.1333 44.016 86.7306 43.824C87.328 43.6213 87.9573 43.52 88.6186 43.52ZM88.2186 51.184C88.8586 51.184 89.408 51.04 89.8666 50.752C90.3253 50.4533 90.6666 50.0267 90.8906 49.472V48.096H88.2506C86.8106 48.096 86.0906 48.5973 86.0906 49.6C86.0906 50.0907 86.2773 50.48 86.6506 50.768C87.024 51.0453 87.5466 51.184 88.2186 51.184ZM100.344 51.488C100.131 51.68 99.8641 51.8293 99.5441 51.936C99.2348 52.032 98.9095 52.08 98.5681 52.08C97.7788 52.08 97.1708 51.8667 96.7441 51.44C96.3175 51.0133 96.1041 50.4107 96.1041 49.632V44.544H94.6001V43.584H96.1041V41.744H97.2401V43.584H99.8001V44.544H97.2401V49.568C97.2401 50.0693 97.3628 50.4533 97.6081 50.72C97.8641 50.976 98.2268 51.104 98.6961 51.104C98.9308 51.104 99.1548 51.0667 99.3681 50.992C99.5921 50.9173 99.7841 50.8107 99.9441 50.672L100.344 51.488ZM110.243 48.144H103.203C103.267 49.0187 103.603 49.728 104.211 50.272C104.819 50.8053 105.587 51.072 106.515 51.072C107.038 51.072 107.518 50.9813 107.955 50.8C108.393 50.608 108.771 50.3307 109.091 49.968L109.731 50.704C109.358 51.152 108.889 51.4933 108.323 51.728C107.769 51.9627 107.155 52.08 106.483 52.08C105.619 52.08 104.851 51.8987 104.179 51.536C103.518 51.1627 103.001 50.6507 102.627 50C102.254 49.3493 102.067 48.6133 102.067 47.792C102.067 46.9707 102.243 46.2347 102.595 45.584C102.958 44.9333 103.449 44.4267 104.067 44.064C104.697 43.7013 105.401 43.52 106.179 43.52C106.958 43.52 107.657 43.7013 108.275 44.064C108.894 44.4267 109.379 44.9333 109.731 45.584C110.083 46.224 110.259 46.96 110.259 47.792L110.243 48.144ZM106.179 44.496C105.369 44.496 104.686 44.7573 104.131 45.28C103.587 45.792 103.278 46.464 103.203 47.296H109.171C109.097 46.464 108.782 45.792 108.227 45.28C107.683 44.7573 107.001 44.496 106.179 44.496ZM113.483 45.264C113.249 45.264 113.046 45.1787 112.875 45.008C112.715 44.8373 112.635 44.6293 112.635 44.384C112.635 44.1387 112.715 43.936 112.875 43.776C113.046 43.6053 113.249 43.52 113.483 43.52C113.718 43.52 113.921 43.6053 114.091 43.776C114.262 43.936 114.347 44.1387 114.347 44.384C114.347 44.6293 114.262 44.8373 114.091 45.008C113.921 45.1787 113.718 45.264 113.483 45.264ZM113.483 52.08C113.249 52.08 113.046 51.9947 112.875 51.824C112.715 51.6533 112.635 51.4453 112.635 51.2C112.635 50.9547 112.715 50.752 112.875 50.592C113.046 50.4213 113.249 50.336 113.483 50.336C113.718 50.336 113.921 50.4213 114.091 50.592C114.262 50.752 114.347 50.9547 114.347 51.2C114.347 51.4453 114.262 51.6533 114.091 51.824C113.921 51.9947 113.718 52.08 113.483 52.08ZM127.686 52.096C126.576 52.096 125.568 51.8507 124.662 51.36C123.766 50.8587 123.062 50.176 122.55 49.312C122.048 48.448 121.798 47.4773 121.798 46.4C121.798 45.3227 122.048 44.352 122.55 43.488C123.062 42.624 123.766 41.9467 124.662 41.456C125.568 40.9547 126.576 40.704 127.686 40.704C128.795 40.704 129.792 40.9493 130.678 41.44C131.574 41.9307 132.278 42.6133 132.79 43.488C133.302 44.352 133.558 45.3227 133.558 46.4C133.558 47.4773 133.302 48.4533 132.79 49.328C132.278 50.192 131.574 50.8693 130.678 51.36C129.792 51.8507 128.795 52.096 127.686 52.096ZM127.686 51.04C128.571 51.04 129.371 50.8427 130.086 50.448C130.8 50.0427 131.36 49.488 131.766 48.784C132.171 48.0693 132.374 47.2747 132.374 46.4C132.374 45.5253 132.171 44.736 131.766 44.032C131.36 43.3173 130.8 42.7627 130.086 42.368C129.371 41.9627 128.571 41.76 127.686 41.76C126.8 41.76 125.995 41.9627 125.27 42.368C124.555 42.7627 123.99 43.3173 123.574 44.032C123.168 44.736 122.966 45.5253 122.966 46.4C122.966 47.2747 123.168 48.0693 123.574 48.784C123.99 49.488 124.555 50.0427 125.27 50.448C125.995 50.8427 126.8 51.04 127.686 51.04ZM140.26 52.08C139.428 52.08 138.681 51.8987 138.02 51.536C137.369 51.1733 136.857 50.6667 136.484 50.016C136.11 49.3547 135.924 48.6133 135.924 47.792C135.924 46.9707 136.11 46.2347 136.484 45.584C136.857 44.9333 137.369 44.4267 138.02 44.064C138.681 43.7013 139.428 43.52 140.26 43.52C140.985 43.52 141.63 43.664 142.196 43.952C142.772 44.2293 143.225 44.64 143.556 45.184L142.708 45.76C142.43 45.344 142.078 45.0347 141.652 44.832C141.225 44.6187 140.761 44.512 140.26 44.512C139.652 44.512 139.102 44.6507 138.612 44.928C138.132 45.1947 137.753 45.5787 137.476 46.08C137.209 46.5813 137.076 47.152 137.076 47.792C137.076 48.4427 137.209 49.0187 137.476 49.52C137.753 50.0107 138.132 50.3947 138.612 50.672C139.102 50.9387 139.652 51.072 140.26 51.072C140.761 51.072 141.225 50.9707 141.652 50.768C142.078 50.5653 142.43 50.256 142.708 49.84L143.556 50.416C143.225 50.96 142.772 51.376 142.196 51.664C141.62 51.9413 140.974 52.08 140.26 52.08ZM151.113 51.488C150.9 51.68 150.633 51.8293 150.313 51.936C150.004 52.032 149.678 52.08 149.337 52.08C148.548 52.08 147.94 51.8667 147.513 51.44C147.086 51.0133 146.873 50.4107 146.873 49.632V44.544H145.369V43.584H146.873V41.744H148.009V43.584H150.569V44.544H148.009V49.568C148.009 50.0693 148.132 50.4533 148.377 50.72C148.633 50.976 148.996 51.104 149.465 51.104C149.7 51.104 149.924 51.0667 150.137 50.992C150.361 50.9173 150.553 50.8107 150.713 50.672L151.113 51.488ZM157.124 52.08C156.313 52.08 155.583 51.8987 154.932 51.536C154.281 51.1627 153.769 50.6507 153.396 50C153.023 49.3493 152.836 48.6133 152.836 47.792C152.836 46.9707 153.023 46.2347 153.396 45.584C153.769 44.9333 154.281 44.4267 154.932 44.064C155.583 43.7013 156.313 43.52 157.124 43.52C157.935 43.52 158.665 43.7013 159.316 44.064C159.967 44.4267 160.473 44.9333 160.836 45.584C161.209 46.2347 161.396 46.9707 161.396 47.792C161.396 48.6133 161.209 49.3493 160.836 50C160.473 50.6507 159.967 51.1627 159.316 51.536C158.665 51.8987 157.935 52.08 157.124 52.08ZM157.124 51.072C157.721 51.072 158.255 50.9387 158.724 50.672C159.204 50.3947 159.577 50.0053 159.844 49.504C160.111 49.0027 160.244 48.432 160.244 47.792C160.244 47.152 160.111 46.5813 159.844 46.08C159.577 45.5787 159.204 45.1947 158.724 44.928C158.255 44.6507 157.721 44.512 157.124 44.512C156.527 44.512 155.988 44.6507 155.508 44.928C155.039 45.1947 154.665 45.5787 154.388 46.08C154.121 46.5813 153.988 47.152 153.988 47.792C153.988 48.432 154.121 49.0027 154.388 49.504C154.665 50.0053 155.039 50.3947 155.508 50.672C155.988 50.9387 156.527 51.072 157.124 51.072ZM168.851 43.52C169.641 43.52 170.355 43.7013 170.995 44.064C171.635 44.416 172.137 44.9173 172.499 45.568C172.862 46.2187 173.043 46.96 173.043 47.792C173.043 48.624 172.862 49.3653 172.499 50.016C172.137 50.6667 171.635 51.1733 170.995 51.536C170.355 51.8987 169.641 52.08 168.851 52.08C168.147 52.08 167.513 51.9307 166.947 51.632C166.393 51.3333 165.945 50.9013 165.603 50.336V52H164.515V40.128H165.651V45.184C166.003 44.64 166.451 44.2293 166.995 43.952C167.55 43.664 168.169 43.52 168.851 43.52ZM168.771 51.072C169.358 51.072 169.891 50.9387 170.371 50.672C170.851 50.3947 171.225 50.0053 171.491 49.504C171.769 49.0027 171.907 48.432 171.907 47.792C171.907 47.152 171.769 46.5813 171.491 46.08C171.225 45.5787 170.851 45.1947 170.371 44.928C169.891 44.6507 169.358 44.512 168.771 44.512C168.174 44.512 167.635 44.6507 167.155 44.928C166.686 45.1947 166.313 45.5787 166.035 46.08C165.769 46.5813 165.635 47.152 165.635 47.792C165.635 48.432 165.769 49.0027 166.035 49.504C166.313 50.0053 166.686 50.3947 167.155 50.672C167.635 50.9387 168.174 51.072 168.771 51.072ZM183.487 48.144H176.447C176.511 49.0187 176.847 49.728 177.455 50.272C178.063 50.8053 178.831 51.072 179.759 51.072C180.282 51.072 180.762 50.9813 181.199 50.8C181.636 50.608 182.015 50.3307 182.335 49.968L182.975 50.704C182.602 51.152 182.132 51.4933 181.567 51.728C181.012 51.9627 180.399 52.08 179.727 52.08C178.863 52.08 178.095 51.8987 177.423 51.536C176.762 51.1627 176.244 50.6507 175.871 50C175.498 49.3493 175.311 48.6133 175.311 47.792C175.311 46.9707 175.487 46.2347 175.839 45.584C176.202 44.9333 176.692 44.4267 177.311 44.064C177.94 43.7013 178.644 43.52 179.423 43.52C180.202 43.52 180.9 43.7013 181.519 44.064C182.138 44.4267 182.623 44.9333 182.975 45.584C183.327 46.224 183.503 46.96 183.503 47.792L183.487 48.144ZM179.423 44.496C178.612 44.496 177.93 44.7573 177.375 45.28C176.831 45.792 176.522 46.464 176.447 47.296H182.415C182.34 46.464 182.026 45.792 181.471 45.28C180.927 44.7573 180.244 44.496 179.423 44.496ZM187.703 45.232C187.97 44.6667 188.365 44.24 188.887 43.952C189.421 43.664 190.077 43.52 190.855 43.52V44.624L190.583 44.608C189.698 44.608 189.005 44.88 188.503 45.424C188.002 45.968 187.751 46.7307 187.751 47.712V52H186.615V43.584H187.703V45.232ZM205.721 50.976V52H197.865V51.184L202.521 46.624C203.107 46.048 203.502 45.552 203.705 45.136C203.918 44.7093 204.025 44.2827 204.025 43.856C204.025 43.1947 203.795 42.6827 203.337 42.32C202.889 41.9467 202.243 41.76 201.401 41.76C200.089 41.76 199.07 42.176 198.345 43.008L197.529 42.304C197.966 41.792 198.521 41.3973 199.193 41.12C199.875 40.8427 200.643 40.704 201.497 40.704C202.638 40.704 203.539 40.976 204.201 41.52C204.873 42.0533 205.209 42.7893 205.209 43.728C205.209 44.304 205.081 44.8587 204.825 45.392C204.569 45.9253 204.083 46.5387 203.369 47.232L199.561 50.976H205.721ZM212.368 52.096C211.504 52.096 210.731 51.8667 210.048 51.408C209.376 50.9493 208.848 50.2933 208.464 49.44C208.091 48.576 207.904 47.5627 207.904 46.4C207.904 45.2373 208.091 44.2293 208.464 43.376C208.848 42.512 209.376 41.8507 210.048 41.392C210.731 40.9333 211.504 40.704 212.368 40.704C213.232 40.704 214 40.9333 214.672 41.392C215.355 41.8507 215.888 42.512 216.272 43.376C216.656 44.2293 216.848 45.2373 216.848 46.4C216.848 47.5627 216.656 48.576 216.272 49.44C215.888 50.2933 215.355 50.9493 214.672 51.408C214 51.8667 213.232 52.096 212.368 52.096ZM212.368 51.04C213.019 51.04 213.589 50.8587 214.08 50.496C214.581 50.1333 214.971 49.6053 215.248 48.912C215.525 48.2187 215.664 47.3813 215.664 46.4C215.664 45.4187 215.525 44.5813 215.248 43.888C214.971 43.1947 214.581 42.6667 214.08 42.304C213.589 41.9413 213.019 41.76 212.368 41.76C211.717 41.76 211.141 41.9413 210.64 42.304C210.149 42.6667 209.765 43.1947 209.488 43.888C209.211 44.5813 209.072 45.4187 209.072 46.4C209.072 47.3813 209.211 48.2187 209.488 48.912C209.765 49.6053 210.149 50.1333 210.64 50.496C211.141 50.8587 211.717 51.04 212.368 51.04ZM226.914 50.976V52H219.058V51.184L223.714 46.624C224.301 46.048 224.696 45.552 224.898 45.136C225.112 44.7093 225.218 44.2827 225.218 43.856C225.218 43.1947 224.989 42.6827 224.53 42.32C224.082 41.9467 223.437 41.76 222.594 41.76C221.282 41.76 220.264 42.176 219.538 43.008L218.722 42.304C219.16 41.792 219.714 41.3973 220.386 41.12C221.069 40.8427 221.837 40.704 222.69 40.704C223.832 40.704 224.733 40.976 225.394 41.52C226.066 42.0533 226.402 42.7893 226.402 43.728C226.402 44.304 226.274 44.8587 226.018 45.392C225.762 45.9253 225.277 46.5387 224.562 47.232L220.754 50.976H226.914ZM233.562 52.096C232.698 52.096 231.924 51.8667 231.242 51.408C230.57 50.9493 230.042 50.2933 229.658 49.44C229.284 48.576 229.098 47.5627 229.098 46.4C229.098 45.2373 229.284 44.2293 229.658 43.376C230.042 42.512 230.57 41.8507 231.242 41.392C231.924 40.9333 232.698 40.704 233.562 40.704C234.426 40.704 235.194 40.9333 235.866 41.392C236.548 41.8507 237.082 42.512 237.466 43.376C237.85 44.2293 238.042 45.2373 238.042 46.4C238.042 47.5627 237.85 48.576 237.466 49.44C237.082 50.2933 236.548 50.9493 235.866 51.408C235.194 51.8667 234.426 52.096 233.562 52.096ZM233.562 51.04C234.212 51.04 234.783 50.8587 235.274 50.496C235.775 50.1333 236.164 49.6053 236.442 48.912C236.719 48.2187 236.858 47.3813 236.858 46.4C236.858 45.4187 236.719 44.5813 236.442 43.888C236.164 43.1947 235.775 42.6667 235.274 42.304C234.783 41.9413 234.212 41.76 233.562 41.76C232.911 41.76 232.335 41.9413 231.834 42.304C231.343 42.6667 230.959 43.1947 230.682 43.888C230.404 44.5813 230.266 45.4187 230.266 46.4C230.266 47.3813 230.404 48.2187 230.682 48.912C230.959 49.6053 231.343 50.1333 231.834 50.496C232.335 50.8587 232.911 51.04 233.562 51.04Z" fill="white"/>
</svg>
